<svg width="50mm" height="50mm" version="1.1" viewBox="0 0 50 50" xmlns="http://www.w3.org/2000/svg">
 <g>
  <path transform="scale(.26458)" d="m8.3672 0c-4.3768.25096-7.9569 5.5177-8.3672 12.311v12.74c.39248 7.0322 3.8167 12.484 8.0039 12.744h172.97c4.1878-.2598 7.6133-5.7119 8.0059-12.744v-12.307c-.39248-7.0322-3.8167-12.484-8.0039-12.744z" stroke-width="4"/>
  <path d="m2.2138 20c-1.158.0664-2.1053 1.4599-2.2138 3.2572v3.3709c.10384 1.8606 1.0098 3.3031 2.1177 3.3719h45.764c1.108-.06874 2.0144-1.5113 2.1182-3.3719v-3.2561c-.10384-1.8606-1.0098-3.3031-2.1177-3.3719z" stroke-width="1.0583"/>
  <path d="m2.2138 40c-1.158.0664-2.1053 1.4599-2.2138 3.2572v3.3709c.10384 1.8606 1.0098 3.3031 2.1177 3.3719h45.764c1.108-.06874 2.0144-1.5113 2.1182-3.3719v-3.2561c-.10384-1.8606-1.0098-3.3031-2.1177-3.3719z" stroke-width="1.0583"/>
 </g>
</svg>
